<?xml version="1.0" encoding="UTF-8" standalone="no"?>
<svg width="36px" height="48px" viewBox="0 0 36 48" version="1.1" xmlns="http://www.w3.org/2000/svg" xmlns:xlink="http://www.w3.org/1999/xlink">
    <!-- Generator: Sketch 3.6 (26304) - http://www.bohemiancoding.com/sketch -->
    <title>file copy</title>
    <desc>Created with Sketch.</desc>
    <defs></defs>
    <g id="Pages" stroke="none" stroke-width="1" fill="none" fill-rule="evenodd">
        <g id="File-upload" transform="translate(-662.000000, -541.000000)">
            <g id="Modal" transform="translate(0.000000, -1.000000)">
                <g transform="translate(370.000000, 303.000000)" id="file-copy">
                    <g transform="translate(292.000000, 239.000000)">
                        <path d="M0,3.00261497 C0,1.34431651 1.34308127,0 3.00138694,0 L22,0 L36,14.0013893 L36,44.9977643 C36,46.6558533 34.6544607,48 32.9925801,48 L3.00741988,48 C1.34646775,48 0,46.6661074 0,44.997385 L0,3.00261497 Z" id="Rectangle-32" fill="#1A9E77"></path>
                        <path d="M22,0 L36,14 L25.9931023,14 C23.7877728,14 22,12.2126701 22,10.0068977 L22,0 Z" id="Rectangle-33" fill="#126B50"></path>
                        <path d="M11.2792969,34.6542969 L9.16992188,31.4492188 L11.1972656,31.4492188 L12.46875,33.5351562 L13.7519531,31.4492188 L15.7792969,31.4492188 L13.6464844,34.6542969 L15.8789062,38 L13.8457031,38 L12.46875,35.7558594 L11.0859375,38 L9.05859375,38 L11.2792969,34.6542969 Z M18.6621094,38 L16.875,38 L16.875,28.8828125 L18.6621094,28.8828125 L18.6621094,38 Z M25.1074219,36.0546875 C25.1074219,36.7265659 24.8740258,37.2382795 24.4072266,37.5898438 C23.9404274,37.941408 23.2421921,38.1171875 22.3125,38.1171875 C21.8359351,38.1171875 21.4296892,38.0849613 21.09375,38.0205078 C20.7578108,37.9560544 20.4433608,37.8613287 20.1503906,37.7363281 L20.1503906,36.2597656 C20.4824235,36.4160164 20.8564432,36.5468745 21.2724609,36.6523438 C21.6884786,36.757813 22.0546859,36.8105469 22.3710938,36.8105469 C23.0195345,36.8105469 23.34375,36.6230487 23.34375,36.2480469 C23.34375,36.1074212 23.3007817,35.9931645 23.2148438,35.9052734 C23.1289058,35.8173824 22.9804698,35.717774 22.7695312,35.6064453 C22.5585927,35.4951166 22.2773455,35.3652351 21.9257812,35.2167969 C21.4218725,35.0058583 21.051759,34.8105478 20.8154297,34.6308594 C20.5791004,34.451171 20.4072271,34.2451183 20.2998047,34.0126953 C20.1923823,33.7802723 20.1386719,33.4941423 20.1386719,33.1542969 C20.1386719,32.5722627 20.3642556,32.1220719 20.8154297,31.8037109 C21.2666038,31.48535 21.9062459,31.3261719 22.734375,31.3261719 C23.5234414,31.3261719 24.2910119,31.4980452 25.0371094,31.8417969 L24.4980469,33.1308594 C24.1699202,32.9902337 23.8632827,32.8750004 23.578125,32.7851562 C23.2929673,32.6953121 23.0019546,32.6503906 22.7050781,32.6503906 C22.1777317,32.6503906 21.9140625,32.7929673 21.9140625,33.078125 C21.9140625,33.2382821 21.9990226,33.3769525 22.1689453,33.4941406 C22.338868,33.6113287 22.7109346,33.7851551 23.2851562,34.015625 C23.7968776,34.2226573 24.1718738,34.4160147 24.4101562,34.5957031 C24.6484387,34.7753915 24.8242182,34.9824207 24.9375,35.2167969 C25.0507818,35.451173 25.1074219,35.7304671 25.1074219,36.0546875 L25.1074219,36.0546875 Z" id="xls" fill="#FFFFFF"></path>
                    </g>
                </g>
            </g>
        </g>
    </g>
</svg>